<svg xmlns="http://www.w3.org/2000/svg" xmlns:xlink="http://www.w3.org/1999/xlink" width="800" zoomAndPan="magnify" viewBox="0 0 600 449.999984" height="600" preserveAspectRatio="xMidYMid meet" version="1.0"><defs><clipPath id="01cc66a035"><path d="M 232 346 L 383.519531 346 L 383.519531 370.296875 L 232 370.296875 Z M 232 346 " clip-rule="nonzero"/></clipPath><clipPath id="b24ed0b6fc"><path d="M 131.421875 62 L 157 62 L 157 87 L 131.421875 87 Z M 131.421875 62 " clip-rule="nonzero"/></clipPath><clipPath id="cedd586d23"><path d="M 329 4.355469 L 355 4.355469 L 355 28.9375 L 329 28.9375 Z M 329 4.355469 " clip-rule="nonzero"/></clipPath><clipPath id="635738474a"><path d="M 429.121094 75 L 454.609375 75 L 454.609375 99.617188 L 429.121094 99.617188 Z M 429.121094 75 " clip-rule="nonzero"/></clipPath></defs><g clip-path="url(#01cc66a035)"><path fill="#2085b7" d="M 383.34375 358.476562 C 383.34375 358.859375 383.226562 359.25 382.988281 359.632812 C 382.738281 360.015625 382.382812 360.402344 381.890625 360.785156 C 381.410156 361.15625 380.8125 361.53125 380.09375 361.90625 C 379.371094 362.28125 378.542969 362.636719 377.589844 362.992188 C 376.644531 363.355469 375.585938 363.703125 374.417969 364.042969 C 373.253906 364.382812 371.988281 364.71875 370.605469 365.039062 C 369.234375 365.359375 367.757812 365.671875 366.191406 365.96875 C 364.621094 366.269531 362.957031 366.554688 361.210938 366.832031 C 359.457031 367.097656 357.621094 367.363281 355.714844 367.605469 C 353.800781 367.855469 351.816406 368.078125 349.757812 368.300781 C 347.691406 368.515625 345.570312 368.710938 343.390625 368.886719 C 341.207031 369.074219 338.972656 369.246094 336.683594 369.386719 C 334.402344 369.539062 332.070312 369.664062 329.699219 369.777344 C 327.332031 369.894531 324.9375 369.984375 322.503906 370.0625 C 320.082031 370.136719 317.632812 370.1875 315.164062 370.234375 C 312.707031 370.269531 310.242188 370.285156 307.765625 370.285156 C 305.289062 370.285156 302.8125 370.269531 300.355469 370.234375 C 297.886719 370.1875 295.445312 370.136719 293.015625 370.0625 C 290.585938 369.984375 288.1875 369.894531 285.820312 369.777344 C 283.449219 369.664062 281.125 369.539062 278.835938 369.386719 C 276.546875 369.246094 274.3125 369.074219 272.128906 368.886719 C 269.949219 368.710938 267.828125 368.515625 265.773438 368.300781 C 263.714844 368.078125 261.726562 367.855469 259.8125 367.605469 C 257.898438 367.363281 256.0625 367.097656 254.316406 366.832031 C 252.5625 366.554688 250.90625 366.269531 249.332031 365.96875 C 247.761719 365.671875 246.292969 365.359375 244.914062 365.039062 C 243.542969 364.71875 242.269531 364.382812 241.101562 364.042969 C 239.933594 363.703125 238.875 363.355469 237.929688 362.992188 C 236.988281 362.636719 236.148438 362.269531 235.429688 361.90625 C 234.714844 361.53125 234.109375 361.15625 233.628906 360.785156 C 233.148438 360.402344 232.78125 360.015625 232.542969 359.632812 C 232.300781 359.25 232.175781 358.859375 232.175781 358.476562 C 232.175781 358.09375 232.300781 357.703125 232.542969 357.320312 C 232.78125 356.9375 233.148438 356.554688 233.628906 356.171875 C 234.109375 355.796875 234.714844 355.421875 235.429688 355.046875 C 236.148438 354.671875 236.988281 354.316406 237.929688 353.960938 C 238.875 353.597656 239.933594 353.25 241.101562 352.910156 C 242.269531 352.570312 243.542969 352.234375 244.914062 351.914062 C 246.292969 351.59375 247.761719 351.28125 249.332031 350.988281 C 250.90625 350.683594 252.5625 350.398438 254.316406 350.121094 C 256.0625 349.855469 257.898438 349.589844 259.8125 349.347656 C 261.726562 349.097656 263.714844 348.875 265.773438 348.652344 C 267.828125 348.4375 269.949219 348.242188 272.128906 348.054688 C 274.3125 347.878906 276.546875 347.710938 278.835938 347.566406 C 281.125 347.414062 283.449219 347.289062 285.820312 347.175781 C 288.1875 347.058594 290.585938 346.96875 293.015625 346.890625 C 295.445312 346.820312 297.886719 346.765625 300.355469 346.71875 C 302.8125 346.683594 305.289062 346.667969 307.765625 346.667969 C 310.242188 346.667969 312.707031 346.683594 315.164062 346.71875 C 317.632812 346.765625 320.082031 346.820312 322.503906 346.890625 C 324.9375 346.96875 327.332031 347.058594 329.699219 347.175781 C 332.070312 347.289062 334.402344 347.414062 336.683594 347.566406 C 338.972656 347.710938 341.207031 347.878906 343.390625 348.054688 C 345.570312 348.242188 347.691406 348.4375 349.757812 348.652344 C 351.816406 348.875 353.800781 349.097656 355.714844 349.347656 C 357.621094 349.589844 359.457031 349.855469 361.210938 350.121094 C 362.957031 350.398438 364.621094 350.683594 366.191406 350.988281 C 367.757812 351.28125 369.234375 351.59375 370.605469 351.914062 C 371.988281 352.234375 373.253906 352.570312 374.417969 352.910156 C 375.585938 353.25 376.644531 353.597656 377.589844 353.960938 C 378.542969 354.316406 379.371094 354.671875 380.09375 355.046875 C 380.8125 355.421875 381.410156 355.796875 381.890625 356.171875 C 382.382812 356.554688 382.738281 356.9375 382.988281 357.320312 C 383.226562 357.703125 383.34375 358.09375 383.34375 358.476562 Z M 383.34375 358.476562 " fill-opacity="1" fill-rule="nonzero"/></g><path fill="#d5e9f2" d="M 365.101562 113.546875 C 345.464844 84.964844 297.699219 84.964844 297.699219 84.964844 C 297.699219 84.964844 249.925781 84.964844 230.289062 113.546875 C 212.261719 139.773438 212.421875 175.621094 212.421875 175.621094 L 229.835938 197.949219 L 365.546875 197.949219 L 382.960938 175.621094 C 382.960938 175.621094 383.128906 139.773438 365.101562 113.546875 Z M 365.101562 113.546875 " fill-opacity="1" fill-rule="nonzero"/><path fill="#a8d7e9" d="M 365.128906 113.546875 C 357.425781 102.351562 345.410156 95.527344 333.636719 91.386719 C 339.730469 95.179688 345.261719 100 349.507812 106.179688 C 367.535156 132.410156 367.363281 168.25 367.363281 168.25 L 349.953125 190.585938 L 224.125 190.585938 L 229.871094 197.949219 L 365.574219 197.949219 L 382.988281 175.621094 C 382.988281 175.621094 383.15625 139.773438 365.128906 113.546875 Z M 365.128906 113.546875 " fill-opacity="1" fill-rule="nonzero"/><path fill="#002b43" d="M 340.992188 119.351562 C 322.691406 105.503906 272.699219 105.503906 254.398438 119.351562 C 234.527344 134.378906 235.207031 170.261719 235.207031 170.261719 L 360.195312 170.261719 C 360.195312 170.261719 360.863281 134.386719 340.992188 119.351562 Z M 340.992188 119.351562 " fill-opacity="1" fill-rule="nonzero"/><path fill="#000f16" d="M 235.722656 170.261719 C 236.949219 158.558594 241.011719 138.964844 254.398438 128.839844 C 272.683594 115.015625 322.691406 115.015625 340.992188 128.839844 C 354.390625 138.964844 358.441406 158.550781 359.671875 170.261719 L 360.195312 170.261719 C 360.195312 170.261719 360.863281 134.378906 340.992188 119.351562 C 322.691406 105.503906 272.699219 105.503906 254.398438 119.351562 C 234.527344 134.378906 235.207031 170.261719 235.207031 170.261719 Z M 235.722656 170.261719 " fill-opacity="1" fill-rule="nonzero"/><path fill="#d5e9f2" d="M 282.746094 78.269531 L 312.652344 78.269531 C 313.011719 78.269531 313.347656 78.339844 313.679688 78.472656 C 314.007812 78.605469 314.292969 78.800781 314.550781 79.050781 C 314.800781 79.300781 314.996094 79.59375 315.128906 79.925781 C 315.265625 80.246094 315.335938 80.59375 315.335938 80.949219 L 315.335938 90.328125 C 315.335938 90.683594 315.265625 91.023438 315.128906 91.351562 C 314.996094 91.679688 314.800781 91.964844 314.550781 92.222656 C 314.292969 92.472656 314.007812 92.667969 313.679688 92.804688 C 313.347656 92.9375 313.011719 93.007812 312.652344 93.007812 L 282.746094 93.007812 C 282.390625 93.007812 282.042969 92.9375 281.714844 92.804688 C 281.394531 92.667969 281.097656 92.472656 280.851562 92.222656 C 280.601562 91.964844 280.40625 91.679688 280.269531 91.351562 C 280.136719 91.023438 280.066406 90.683594 280.066406 90.328125 L 280.066406 80.949219 C 280.066406 80.59375 280.136719 80.246094 280.269531 79.925781 C 280.40625 79.59375 280.601562 79.300781 280.851562 79.050781 C 281.097656 78.800781 281.394531 78.605469 281.714844 78.472656 C 282.042969 78.339844 282.390625 78.269531 282.746094 78.269531 Z M 282.746094 78.269531 " fill-opacity="1" fill-rule="nonzero"/><path fill="#d5e9f2" d="M 289.730469 85.410156 L 293.753906 47.898438 L 299.109375 47.898438 L 305.664062 85.632812 Z M 289.730469 85.410156 " fill-opacity="1" fill-rule="nonzero"/><path fill="#d5e9f2" d="M 303.054688 47.898438 C 303.054688 48.753906 302.894531 49.582031 302.5625 50.375 C 302.234375 51.15625 301.769531 51.859375 301.164062 52.46875 C 300.558594 53.074219 299.855469 53.535156 299.0625 53.863281 C 298.28125 54.195312 297.453125 54.355469 296.597656 54.355469 C 295.742188 54.355469 294.921875 54.195312 294.128906 53.863281 C 293.335938 53.535156 292.632812 53.074219 292.035156 52.46875 C 291.429688 51.859375 290.957031 51.15625 290.628906 50.375 C 290.308594 49.582031 290.140625 48.753906 290.140625 47.898438 C 290.140625 47.042969 290.308594 46.214844 290.628906 45.429688 C 290.957031 44.636719 291.429688 43.933594 292.035156 43.328125 C 292.632812 42.722656 293.335938 42.261719 294.128906 41.929688 C 294.921875 41.601562 295.742188 41.441406 296.597656 41.441406 C 297.453125 41.441406 298.28125 41.601562 299.0625 41.929688 C 299.855469 42.261719 300.558594 42.722656 301.164062 43.328125 C 301.769531 43.933594 302.234375 44.636719 302.5625 45.429688 C 302.894531 46.214844 303.054688 47.042969 303.054688 47.898438 Z M 303.054688 47.898438 " fill-opacity="1" fill-rule="nonzero"/><path fill="#a8d7e9" d="M 300.621094 42.839844 C 300.953125 43.5 301.164062 44.203125 301.253906 44.933594 C 301.34375 45.664062 301.308594 46.394531 301.148438 47.113281 C 300.996094 47.835938 300.71875 48.511719 300.328125 49.136719 C 299.9375 49.769531 299.457031 50.3125 298.875 50.773438 C 298.296875 51.230469 297.65625 51.585938 296.960938 51.824219 C 296.265625 52.066406 295.546875 52.191406 294.804688 52.183594 C 294.066406 52.183594 293.355469 52.046875 292.660156 51.800781 C 291.964844 51.550781 291.332031 51.191406 290.753906 50.722656 C 290.96875 51.15625 291.234375 51.558594 291.539062 51.933594 C 291.839844 52.296875 292.1875 52.636719 292.5625 52.929688 C 292.945312 53.222656 293.355469 53.480469 293.78125 53.6875 C 294.21875 53.890625 294.671875 54.042969 295.144531 54.140625 C 295.617188 54.25 296.089844 54.300781 296.570312 54.292969 C 297.050781 54.292969 297.523438 54.238281 297.996094 54.132812 C 298.464844 54.015625 298.910156 53.855469 299.347656 53.652344 C 299.785156 53.4375 300.183594 53.1875 300.558594 52.886719 C 300.933594 52.582031 301.273438 52.246094 301.574219 51.871094 C 301.878906 51.496094 302.136719 51.085938 302.339844 50.660156 C 302.554688 50.222656 302.714844 49.769531 302.820312 49.304688 C 302.929688 48.832031 302.980469 48.359375 302.992188 47.878906 C 302.992188 47.398438 302.9375 46.917969 302.839844 46.445312 C 302.734375 45.972656 302.582031 45.527344 302.375 45.09375 C 302.171875 44.65625 301.921875 44.246094 301.621094 43.863281 C 301.324219 43.488281 300.996094 43.140625 300.621094 42.839844 Z M 300.621094 42.839844 " fill-opacity="1" fill-rule="nonzero"/><path fill="#a8d7e9" d="M 229.84375 197.949219 L 365.546875 197.949219 L 382.960938 175.621094 L 212.433594 175.621094 Z M 229.84375 197.949219 " fill-opacity="1" fill-rule="nonzero"/><path fill="#a8d7e9" d="M 315.324219 85.9375 C 315.324219 86.878906 314.730469 87.664062 313.988281 87.664062 L 299.035156 87.664062 C 298.296875 87.664062 297.699219 86.898438 297.699219 85.9375 L 297.699219 79.96875 C 297.699219 79.023438 298.296875 78.25 299.035156 78.25 L 314 78.25 C 314.738281 78.25 315.335938 79.015625 315.335938 79.96875 Z M 315.324219 85.9375 " fill-opacity="1" fill-rule="nonzero"/><path fill="#ffffff" d="M 270.980469 97.28125 C 268.808594 93.113281 258.96875 95.5 255.753906 97.023438 C 253.125 98.261719 248.367188 101.007812 245.339844 103.910156 C 242.910156 105.851562 240.773438 108.070312 238.917969 110.570312 C 237.371094 112.664062 234.449219 116.964844 236.335938 119.710938 C 238.402344 122.71875 241.886719 120.109375 243.613281 118.363281 C 248.109375 113.847656 251.59375 108.984375 257.683594 106.234375 C 260.6875 104.878906 273.539062 102.191406 270.980469 97.28125 Z M 270.980469 97.28125 " fill-opacity="1" fill-rule="nonzero"/><path fill="#d5e9f2" d="M 390.199219 248.539062 L 363.667969 202.777344 L 231.722656 202.777344 L 205.191406 248.539062 C 205.191406 248.539062 206.332031 267.597656 212.734375 285.035156 C 222.566406 311.824219 231.9375 322.550781 231.9375 322.550781 L 264.398438 335.089844 L 297.398438 338.097656 L 297.398438 338.152344 C 297.398438 338.152344 297.621094 338.125 297.699219 338.125 C 297.773438 338.125 297.996094 338.152344 297.996094 338.152344 L 297.996094 338.097656 L 330.992188 335.089844 L 363.457031 322.550781 C 363.457031 322.550781 375.230469 307.363281 382.667969 285.035156 C 388.527344 267.4375 390.199219 248.539062 390.199219 248.539062 Z M 390.199219 248.539062 " fill-opacity="1" fill-rule="nonzero"/><path fill="#a8d7e9" d="M 363.667969 202.777344 L 332.425781 202.777344 L 358.949219 248.539062 C 358.949219 248.539062 357.273438 267.417969 351.414062 285.035156 C 343.988281 307.363281 340.65625 316.253906 332.203125 322.550781 C 325.230469 327.742188 299.75 335.089844 299.75 335.089844 L 282.070312 336.710938 L 297.398438 338.125 L 297.398438 338.179688 C 297.398438 338.179688 297.621094 338.152344 297.699219 338.152344 C 297.773438 338.152344 297.996094 338.179688 297.996094 338.179688 L 297.996094 338.125 L 330.992188 335.105469 L 363.457031 322.550781 C 363.457031 322.550781 375.230469 307.363281 382.667969 285.035156 C 388.527344 267.417969 390.199219 248.539062 390.199219 248.539062 Z M 363.667969 202.777344 " fill-opacity="1" fill-rule="nonzero"/><path fill="#a8d7e9" d="M 205.191406 248.539062 L 390.199219 248.539062 L 382.988281 262.253906 Z M 205.191406 248.539062 " fill-opacity="1" fill-rule="nonzero"/><path fill="#ffffff" d="M 242.332031 278.882812 C 241.804688 272.246094 246.339844 263.082031 238.757812 259.582031 C 234.886719 257.78125 228.292969 257.042969 225.285156 260.910156 C 224.160156 262.414062 223.574219 264.105469 223.511719 265.984375 C 222.425781 270.722656 224.972656 277.652344 226.164062 281.917969 C 227.5625 286.914062 232.425781 304.488281 241.378906 299.703125 C 247.476562 296.417969 242.722656 283.796875 242.332031 278.882812 Z M 242.332031 278.882812 " fill-opacity="1" fill-rule="nonzero"/><path fill="#ffffff" d="M 252.066406 212.316406 C 248.039062 206.582031 242.382812 208.496094 238.347656 212.664062 C 229.378906 218.125 219.84375 240.425781 233.425781 242.605469 C 241.234375 243.871094 243.628906 234.339844 246.277344 229.195312 C 248.707031 224.472656 256.019531 217.972656 252.066406 212.316406 Z M 252.066406 212.316406 " fill-opacity="1" fill-rule="nonzero"/><path fill="#d5e9f2" d="M 367.472656 202.5625 C 367.472656 202.5625 414.753906 153.222656 425.566406 150.472656 C 436.386719 147.71875 437.039062 168.285156 425.175781 193.960938 C 413.667969 218.890625 393.960938 244.761719 393.960938 244.761719 Z M 367.472656 202.5625 " fill-opacity="1" fill-rule="nonzero"/><path fill="#a8d7e9" d="M 425.566406 150.453125 C 424.480469 150.730469 423.039062 151.46875 421.320312 152.582031 C 422.949219 160.269531 420.394531 174.144531 413.089844 189.960938 C 405.191406 207.078125 390.253906 224.777344 385.542969 231.339844 L 393.96875 244.769531 C 393.96875 244.769531 413.675781 218.878906 425.183594 193.960938 C 437.03125 168.265625 436.371094 147.683594 425.566406 150.453125 Z M 425.566406 150.453125 " fill-opacity="1" fill-rule="nonzero"/><path fill="#ffffff" d="M 415.566406 161.683594 C 413.847656 161.085938 410.105469 164.375 409.046875 165.28125 C 407.265625 166.8125 402.839844 171.472656 402.554688 174.917969 C 401.753906 176.886719 401.949219 178.570312 404.238281 179.058594 C 407.675781 179.800781 414.40625 170.742188 415.671875 168.007812 C 416.429688 166.296875 417.90625 162.496094 415.566406 161.683594 Z M 415.566406 161.683594 " fill-opacity="1" fill-rule="nonzero"/><path fill="#d5e9f2" d="M 226.496094 202.714844 C 226.496094 202.714844 179.238281 153.332031 168.433594 150.570312 C 157.625 147.808594 156.957031 168.371094 168.808594 194.058594 C 180.296875 218.996094 200 244.886719 200 244.886719 Z M 226.496094 202.714844 " fill-opacity="1" fill-rule="nonzero"/><path fill="#a8d7e9" d="M 168.433594 150.570312 C 169.511719 150.84375 170.957031 151.585938 172.683594 152.699219 C 171.042969 160.382812 173.59375 174.261719 180.886719 190.085938 C 188.777344 207.203125 203.695312 224.910156 208.433594 231.484375 L 200 244.902344 C 200 244.902344 180.308594 219.003906 168.808594 194.066406 C 156.957031 168.371094 157.625 147.800781 168.433594 150.570312 Z M 168.433594 150.570312 " fill-opacity="1" fill-rule="nonzero"/><path fill="#ffffff" d="M 178.429688 161.800781 C 180.148438 161.210938 183.886719 164.5 184.949219 165.40625 C 186.730469 166.9375 191.144531 171.605469 191.429688 175.042969 C 192.234375 177.011719 192.035156 178.703125 189.757812 179.183594 C 186.308594 179.925781 179.585938 170.867188 178.320312 168.125 C 177.5625 166.414062 176.078125 162.609375 178.429688 161.800781 Z M 178.429688 161.800781 " fill-opacity="1" fill-rule="nonzero"/><path fill="#d5e9f2" d="M 231.5625 326.496094 C 231.5625 326.496094 243.347656 357.238281 253.214844 358.246094 C 263.082031 359.25 263.367188 338.179688 263.367188 338.179688 Z M 231.5625 326.496094 " fill-opacity="1" fill-rule="nonzero"/><path fill="#a8d7e9" d="M 255.429688 335.140625 C 255.316406 338.125 254.40625 352.667969 247.46875 354.511719 C 249.5 356.632812 251.558594 358.039062 253.550781 358.246094 C 263.421875 359.25 263.707031 338.179688 263.707031 338.179688 Z M 255.429688 335.140625 " fill-opacity="1" fill-rule="nonzero"/><path fill="#d5e9f2" d="M 334.339844 338.179688 C 334.339844 338.179688 349.402344 361.335938 368.824219 356.5 C 376.949219 354.476562 364.140625 326.496094 364.140625 326.496094 Z M 334.339844 338.179688 " fill-opacity="1" fill-rule="nonzero"/><path fill="#a8d7e9" d="M 364.140625 326.496094 L 356.054688 329.664062 C 359.3125 337.851562 364.453125 353.015625 358.558594 354.496094 C 357.023438 354.878906 355.457031 355.09375 353.882812 355.144531 C 358.371094 357.023438 363.429688 357.84375 368.824219 356.5 C 376.949219 354.476562 364.140625 326.496094 364.140625 326.496094 Z M 364.140625 326.496094 " fill-opacity="1" fill-rule="nonzero"/><path fill="#3aedb1" d="M 301.511719 121.019531 C 301.511719 121.304688 301.40625 121.550781 301.199219 121.757812 C 300.996094 121.960938 300.746094 122.070312 300.460938 122.070312 C 300.167969 122.070312 299.917969 121.960938 299.714844 121.757812 C 299.507812 121.542969 299.402344 121.292969 299.402344 121.007812 L 299.402344 116.148438 C 299.402344 115.851562 299.507812 115.601562 299.714844 115.398438 C 299.917969 115.195312 300.167969 115.085938 300.460938 115.085938 C 300.753906 115.085938 301.003906 115.195312 301.210938 115.398438 C 301.414062 115.601562 301.519531 115.851562 301.511719 116.148438 Z M 301.511719 121.019531 " fill-opacity="1" fill-rule="nonzero"/><path fill="#3aedb1" d="M 283.824219 133.648438 C 284.117188 133.65625 284.359375 133.753906 284.574219 133.960938 C 284.777344 134.171875 284.875 134.421875 284.875 134.707031 C 284.875 135 284.769531 135.25 284.5625 135.457031 C 284.359375 135.660156 284.109375 135.765625 283.816406 135.765625 L 278.953125 135.765625 C 278.667969 135.765625 278.417969 135.660156 278.214844 135.457031 C 278 135.25 277.902344 135 277.902344 134.707031 C 277.902344 134.414062 278 134.164062 278.214844 133.960938 C 278.417969 133.753906 278.667969 133.648438 278.960938 133.648438 Z M 283.824219 133.648438 " fill-opacity="1" fill-rule="nonzero"/><path fill="#3aedb1" d="M 285.738281 126.308594 C 285.996094 126.449219 286.167969 126.664062 286.238281 126.949219 C 286.320312 127.226562 286.28125 127.503906 286.140625 127.75 C 285.996094 128.007812 285.785156 128.171875 285.507812 128.25 C 285.222656 128.332031 284.957031 128.292969 284.699219 128.152344 L 280.46875 125.773438 C 280.21875 125.632812 280.046875 125.417969 279.96875 125.140625 C 279.898438 124.855469 279.921875 124.589844 280.066406 124.332031 C 280.21875 124.082031 280.421875 123.914062 280.707031 123.832031 C 280.984375 123.761719 281.25 123.789062 281.507812 123.929688 Z M 285.738281 126.308594 " fill-opacity="1" fill-rule="nonzero"/><path fill="#3aedb1" d="M 293.042969 121.367188 C 293.167969 121.625 293.175781 121.898438 293.078125 122.167969 C 292.980469 122.441406 292.800781 122.640625 292.535156 122.765625 C 292.269531 122.886719 292 122.90625 291.722656 122.800781 C 291.449219 122.703125 291.253906 122.523438 291.128906 122.257812 L 289.0625 117.855469 C 288.9375 117.589844 288.929688 117.320312 289.027344 117.046875 C 289.125 116.769531 289.300781 116.574219 289.570312 116.449219 C 289.835938 116.324219 290.101562 116.316406 290.378906 116.414062 C 290.65625 116.511719 290.851562 116.691406 290.976562 116.957031 Z M 293.042969 121.367188 " fill-opacity="1" fill-rule="nonzero"/><path fill="#3aedb1" d="M 317.5 133.976562 C 317.207031 133.976562 316.945312 134.082031 316.742188 134.289062 C 316.527344 134.503906 316.429688 134.75 316.421875 135.046875 C 316.421875 135.339844 316.527344 135.597656 316.734375 135.800781 C 316.945312 136.015625 317.195312 136.125 317.488281 136.125 L 322.414062 136.125 C 322.710938 136.125 322.957031 136.015625 323.171875 135.8125 C 323.378906 135.597656 323.484375 135.347656 323.484375 135.054688 C 323.484375 134.761719 323.386719 134.511719 323.171875 134.296875 C 322.96875 134.09375 322.71875 133.984375 322.425781 133.984375 Z M 317.5 133.976562 " fill-opacity="1" fill-rule="nonzero"/><path fill="#3aedb1" d="M 315.128906 126.398438 C 314.878906 126.539062 314.710938 126.753906 314.632812 127.03125 C 314.558594 127.316406 314.585938 127.582031 314.730469 127.832031 C 314.863281 128.089844 315.078125 128.269531 315.363281 128.347656 C 315.636719 128.4375 315.90625 128.402344 316.164062 128.269531 L 320.410156 125.898438 C 320.667969 125.757812 320.839844 125.550781 320.929688 125.265625 C 321.007812 124.980469 320.980469 124.714844 320.839844 124.457031 C 320.695312 124.207031 320.484375 124.039062 320.207031 123.957031 C 319.921875 123.878906 319.65625 123.902344 319.40625 124.046875 Z M 315.128906 126.398438 " fill-opacity="1" fill-rule="nonzero"/><path fill="#3aedb1" d="M 307.863281 121.410156 C 307.738281 121.667969 307.730469 121.9375 307.828125 122.210938 C 307.925781 122.488281 308.101562 122.683594 308.363281 122.816406 C 308.628906 122.941406 308.894531 122.949219 309.171875 122.851562 C 309.449219 122.753906 309.652344 122.578125 309.777344 122.320312 L 311.871094 117.917969 C 311.996094 117.660156 312.003906 117.394531 311.90625 117.117188 C 311.808594 116.839844 311.628906 116.636719 311.363281 116.511719 C 311.105469 116.386719 310.828125 116.371094 310.550781 116.46875 C 310.277344 116.566406 310.082031 116.753906 309.957031 117.011719 Z M 307.863281 121.410156 " fill-opacity="1" fill-rule="nonzero"/><path fill="#3aedb1" d="M 313.359375 134.789062 C 313.1875 129.070312 307.203125 125.597656 301.074219 125.613281 C 300.960938 125.613281 300.84375 125.632812 300.730469 125.648438 C 300.613281 125.621094 300.496094 125.613281 300.382812 125.613281 C 294.183594 125.558594 288.695312 128.863281 288.074219 134.441406 C 287.777344 137.023438 288.964844 139.722656 290.78125 141.761719 C 292.332031 143.480469 294.316406 144.949219 294.816406 147.085938 C 294.050781 147.53125 293.65625 148.210938 293.65625 149.101562 L 293.65625 150.175781 L 307.460938 150.222656 L 307.460938 149.136719 C 307.460938 148.332031 307.140625 147.703125 306.5 147.238281 C 306.925781 145.128906 308.824219 143.710938 310.363281 142.046875 C 312.308594 139.988281 313.4375 137.441406 313.359375 134.789062 Z M 310.605469 136.125 C 310.222656 138.554688 308.582031 140.300781 306.785156 142.0625 C 305.34375 143.480469 304.230469 144.976562 303.847656 146.757812 L 297.488281 146.757812 C 297.140625 145.066406 296.125 143.632812 294.789062 142.25 C 293 140.417969 291.402344 138.8125 290.851562 136.363281 C 290.636719 135.285156 290.710938 134.21875 291.054688 133.167969 C 291.402344 132.125 291.984375 131.226562 292.792969 130.476562 C 294.707031 128.617188 297.585938 127.949219 300.371094 127.972656 C 300.496094 127.972656 300.613281 127.964844 300.730469 127.9375 C 300.835938 127.964844 300.953125 127.972656 301.066406 127.972656 C 306.367188 127.929688 311.417969 131.117188 310.605469 136.105469 Z M 310.605469 136.125 " fill-opacity="1" fill-rule="nonzero"/><path fill="#3aedb1" d="M 293.648438 154.265625 L 293.65625 151.21875 L 307.460938 151.265625 L 307.453125 154.308594 Z M 293.648438 154.265625 " fill-opacity="1" fill-rule="nonzero"/><path fill="#3aedb1" d="M 293.640625 158.371094 L 293.648438 155.324219 L 307.453125 155.359375 L 307.445312 158.40625 Z M 293.640625 158.371094 " fill-opacity="1" fill-rule="nonzero"/><path fill="#3aedb1" d="M 293.628906 159.414062 L 293.628906 159.824219 C 293.628906 160.132812 293.683594 160.4375 293.800781 160.722656 C 293.925781 161.015625 294.09375 161.265625 294.308594 161.488281 C 294.53125 161.710938 294.78125 161.878906 295.074219 162.003906 C 295.359375 162.121094 295.660156 162.183594 295.972656 162.183594 L 297.78125 162.183594 L 297.78125 162.371094 C 297.78125 162.683594 297.835938 162.984375 297.957031 163.277344 C 298.074219 163.5625 298.242188 163.8125 298.464844 164.035156 C 298.679688 164.257812 298.9375 164.425781 299.222656 164.550781 C 299.507812 164.667969 299.8125 164.730469 300.125 164.730469 L 300.90625 164.730469 C 301.21875 164.730469 301.511719 164.667969 301.804688 164.550781 C 302.089844 164.4375 302.351562 164.265625 302.5625 164.042969 C 302.785156 163.820312 302.957031 163.574219 303.078125 163.289062 C 303.195312 163.003906 303.257812 162.699219 303.257812 162.386719 L 303.257812 162.183594 L 305.074219 162.183594 C 305.386719 162.183594 305.679688 162.128906 305.964844 162.003906 C 306.257812 161.890625 306.507812 161.71875 306.730469 161.496094 C 306.953125 161.285156 307.125 161.023438 307.25 160.738281 C 307.363281 160.457031 307.425781 160.152344 307.425781 159.839844 L 307.425781 159.429688 Z M 293.628906 159.414062 " fill-opacity="1" fill-rule="nonzero"/><g clip-path="url(#b24ed0b6fc)"><path fill="#ffffff" d="M 149.953125 86.542969 L 142.75 81.695312 L 134.664062 84.886719 L 137.050781 76.53125 L 131.511719 69.835938 L 140.195312 69.511719 L 144.851562 62.175781 L 147.84375 70.339844 L 156.25 72.507812 L 149.421875 77.867188 Z M 149.953125 86.542969 " fill-opacity="1" fill-rule="nonzero"/></g><path fill="#ffffff" d="M 191.769531 114.871094 L 184.554688 110.019531 L 176.476562 113.214844 L 178.855469 104.863281 L 173.324219 98.15625 L 182.007812 97.84375 L 186.675781 90.503906 L 189.648438 98.664062 L 198.066406 100.835938 L 191.226562 106.199219 Z M 191.769531 114.871094 " fill-opacity="1" fill-rule="nonzero"/><path fill="#ffffff" d="M 225.84375 58.335938 L 223.332031 51.835938 L 216.566406 50.214844 L 221.972656 45.824219 L 221.417969 38.875 L 227.269531 42.660156 L 233.699219 39.988281 L 231.902344 46.722656 L 236.433594 52.023438 L 229.480469 52.394531 Z M 225.84375 58.335938 " fill-opacity="1" fill-rule="nonzero"/><g clip-path="url(#cedd586d23)"><path fill="#ffffff" d="M 332.558594 27.101562 L 334.917969 18.730469 L 329.363281 12.042969 L 338.046875 11.703125 L 342.6875 4.355469 L 345.6875 12.511719 L 354.113281 14.652344 L 347.289062 20.03125 L 347.859375 28.703125 L 340.628906 23.878906 Z M 332.558594 27.101562 " fill-opacity="1" fill-rule="nonzero"/></g><path fill="#ffffff" d="M 373.164062 72.320312 L 380.03125 67 L 379.550781 58.328125 L 386.726562 63.214844 L 394.824219 60.074219 L 392.390625 68.417969 L 397.886719 75.140625 L 389.203125 75.410156 L 384.5 82.722656 L 381.5625 74.535156 Z M 373.164062 72.320312 " fill-opacity="1" fill-rule="nonzero"/><g clip-path="url(#635738474a)"><path fill="#ffffff" d="M 429.648438 84.929688 L 438.230469 83.59375 L 442.007812 75.765625 L 445.925781 83.53125 L 454.53125 84.699219 L 448.367188 90.824219 L 449.910156 99.375 L 442.1875 95.402344 L 434.535156 99.519531 L 435.925781 90.941406 Z M 429.648438 84.929688 " fill-opacity="1" fill-rule="nonzero"/></g><path fill="#ffffff" d="M 425.273438 44.121094 L 431.070312 43.230469 L 433.628906 37.933594 L 436.273438 43.175781 L 442.089844 43.96875 L 437.921875 48.113281 L 438.960938 53.890625 L 433.742188 51.203125 L 428.570312 53.980469 L 429.511719 48.191406 Z M 425.273438 44.121094 " fill-opacity="1" fill-rule="nonzero"/><path fill="#2a245e" d="M 90.246094 448.207031 L 90.246094 441.6875 L 79.378906 441.6875 L 71.1875 433.492188 L 71.1875 395.445312 L 79.378906 387.214844 L 111.300781 387.214844 L 119.492188 395.445312 L 119.492188 433.492188 L 111.300781 441.6875 L 100.433594 441.6875 L 100.433594 448.207031 Z M 87.644531 431.179688 L 90.601562 431.179688 L 90.601562 425.441406 L 100.21875 425.441406 L 100.21875 431.179688 L 103.175781 431.179688 L 105.742188 428.613281 L 105.742188 400.328125 L 103.035156 397.726562 L 87.644531 397.726562 L 85.007812 400.328125 L 85.007812 428.613281 Z M 87.644531 431.179688 " fill-opacity="1" fill-rule="nonzero"/><path fill="#2a245e" d="M 143.433594 441.6875 L 135.382812 433.492188 L 135.382812 387.214844 L 149.207031 387.214844 L 149.207031 428.613281 L 151.769531 431.179688 L 166.769531 431.179688 L 169.367188 428.613281 L 169.367188 387.214844 L 183.191406 387.214844 L 183.191406 433.492188 L 174.960938 441.6875 Z M 143.433594 441.6875 " fill-opacity="1" fill-rule="nonzero"/><path fill="#2a245e" d="M 198.324219 441.6875 L 198.324219 431.285156 L 204.378906 431.285156 L 204.238281 397.65625 L 198.324219 397.65625 L 198.324219 387.214844 L 223.4375 387.214844 L 223.4375 397.65625 L 217.453125 397.65625 L 217.3125 431.285156 L 223.4375 431.285156 L 223.4375 441.6875 Z M 198.324219 441.6875 " fill-opacity="1" fill-rule="nonzero"/><path fill="#2a245e" d="M 237.097656 441.6875 L 237.097656 430.074219 L 262.214844 401.039062 L 262.214844 398.472656 L 238.878906 398.472656 L 238.878906 387.214844 L 280.703125 387.214844 L 280.703125 398.832031 L 255.660156 427.863281 L 255.660156 430.464844 L 280.703125 430.464844 L 280.703125 441.6875 Z M 237.097656 441.6875 " fill-opacity="1" fill-rule="nonzero"/><path fill="#2a245e" d="M 296.574219 441.6875 L 296.574219 387.214844 L 310.113281 387.214844 L 324.148438 420.347656 L 338.183594 387.214844 L 351.617188 387.214844 L 351.617188 441.6875 L 338.753906 441.6875 L 338.753906 411.761719 L 327.390625 439.335938 L 320.90625 439.335938 L 309.433594 411.761719 L 309.433594 441.6875 Z M 296.574219 441.6875 " fill-opacity="1" fill-rule="nonzero"/><path fill="#2a245e" d="M 364.179688 441.6875 L 380.140625 387.214844 L 402.582031 387.214844 L 418.542969 441.6875 L 403.9375 441.6875 L 401.195312 430.820312 L 381.527344 430.820312 L 378.820312 441.6875 Z M 384.273438 420.167969 L 398.449219 420.167969 L 392.714844 397.65625 L 390.042969 397.65625 Z M 384.273438 420.167969 " fill-opacity="1" fill-rule="nonzero"/><path fill="#2a245e" d="M 441.546875 441.6875 L 441.546875 398.472656 L 426.300781 398.472656 L 426.300781 387.214844 L 470.582031 387.214844 L 470.582031 398.472656 L 455.335938 398.472656 L 455.335938 441.6875 Z M 441.546875 441.6875 " fill-opacity="1" fill-rule="nonzero"/><path fill="#2a245e" d="M 483.488281 441.6875 L 483.488281 387.214844 L 524.886719 387.214844 L 524.886719 398.472656 L 497.3125 398.472656 L 497.3125 408.519531 L 522.140625 408.519531 L 522.140625 418.921875 L 497.3125 418.921875 L 497.3125 430.464844 L 524.886719 430.464844 L 524.886719 441.6875 Z M 483.488281 441.6875 " fill-opacity="1" fill-rule="nonzero"/></svg>